<?xml version="1.0" standalone="no"?>
<!DOCTYPE svg PUBLIC "-//W3C//DTD SVG 1.1//EN"
"http://www.w3.org/Graphics/SVG/1.1/DTD/svg11.dtd">

<svg width="592" height="339" view_box="0 0 592 339"
xmlns="http://www.w3.org/2000/svg"
xmlns:link="http://www.w3.org/1999/xlink">\n\n<desc>Généré par Mocodo 2.3.7 le Thu, 15 Apr 2021 03:39:30</desc>

<rect id="frame" x="0" y="0" width="592" height="339" fill="#ffffbf" stroke="none" stroke-width="0"/>

<!-- Association PUT -->
<line x1="54" y1="60" x2="167" y2="60" stroke="#f46d43" stroke-width="2"/>
<text x="99" y="77.0" fill="#3288bd" font-family="Verdana" font-size="12">0,N</text>
<line x1="274" y1="60" x2="167" y2="60" stroke="#f46d43" stroke-width="2"/>
<text x="202" y="77.0" fill="#3288bd" font-family="Verdana" font-size="12">1,1</text>
<g id="association-PUT">
	<path d="M 172 35 a 14 14 90 0 1 14 14 V 60 h -38 V 49 a 14 14 90 0 1 14 -14" fill="#fdae61" stroke="#fdae61" stroke-width="0"/>
	<path d="M 186 60.0 v 11 a 14 14 90 0 1 -14 14 H 162 a 14 14 90 0 1 -14 -14 V 60.0 H 38" fill="#fee08b" stroke="#fee08b" stroke-width="0"/>
	<rect x="148" y="35" width="38" height="50" fill="none" rx="14" stroke="#f46d43" stroke-width="2"/>
	<line x1="148" y1="60" x2="186" y2="60" stroke="#f46d43" stroke-width="1"/>
	<text x="155" y="52.7" fill="#000000" font-family="Verdana" font-size="12">PUT</text>
</g>

<!-- Association CONTAINS -->
<line x1="274" y1="60" x2="274" y2="136" stroke="#f46d43" stroke-width="2"/>
<text x="279.0" y="102" fill="#3288bd" font-family="Verdana" font-size="12">1,N</text>
<line x1="274" y1="237" x2="274" y2="136" stroke="#f46d43" stroke-width="2"/>
<text x="279.0" y="178" fill="#3288bd" font-family="Verdana" font-size="12">0,N</text>
<g id="association-CONTAINS">
	<path d="M 300 111 a 14 14 90 0 1 14 14 V 136 h -80 V 125 a 14 14 90 0 1 14 -14" fill="#fdae61" stroke="#fdae61" stroke-width="0"/>
	<path d="M 314 136.0 v 11 a 14 14 90 0 1 -14 14 H 248 a 14 14 90 0 1 -14 -14 V 136.0 H 80" fill="#fee08b" stroke="#fee08b" stroke-width="0"/>
	<rect x="234" y="111" width="80" height="50" fill="none" rx="14" stroke="#f46d43" stroke-width="2"/>
	<line x1="234" y1="136" x2="314" y2="136" stroke="#f46d43" stroke-width="1"/>
	<text x="241" y="128.7" fill="#000000" font-family="Verdana" font-size="12">CONTAINS</text>
</g>

<!-- Association TARGETS -->
<line x1="54" y1="237" x2="167" y2="237" stroke="#f46d43" stroke-width="2"/>
<text x="104" y="254.0" fill="#3288bd" font-family="Verdana" font-size="12">0,N</text>
<line x1="274" y1="237" x2="167" y2="237" stroke="#f46d43" stroke-width="2"/>
<text x="208" y="254.0" fill="#3288bd" font-family="Verdana" font-size="12">0,N</text>
<g id="association-TARGETS">
	<path d="M 189 212 a 14 14 90 0 1 14 14 V 237 h -72 V 226 a 14 14 90 0 1 14 -14" fill="#fdae61" stroke="#fdae61" stroke-width="0"/>
	<path d="M 203 237.0 v 11 a 14 14 90 0 1 -14 14 H 145 a 14 14 90 0 1 -14 -14 V 237.0 H 72" fill="#fee08b" stroke="#fee08b" stroke-width="0"/>
	<rect x="131" y="212" width="72" height="50" fill="none" rx="14" stroke="#f46d43" stroke-width="2"/>
	<line x1="131" y1="237" x2="203" y2="237" stroke="#f46d43" stroke-width="1"/>
	<text x="138" y="229.7" fill="#000000" font-family="Verdana" font-size="12">TARGETS</text>
</g>

<!-- Association BELONGS TO -->
<line x1="274" y1="237" x2="393" y2="237" stroke="#f46d43" stroke-width="2"/>
<text x="318" y="254.0" fill="#3288bd" font-family="Verdana" font-size="12">0,N</text>
<line x1="512" y1="237" x2="393" y2="237" stroke="#f46d43" stroke-width="2"/>
<text x="446" y="254.0" fill="#3288bd" font-family="Verdana" font-size="12">0,N</text>
<g id="association-BELONGS TO">
	<path d="M 427 212 a 14 14 90 0 1 14 14 V 237 h -96 V 226 a 14 14 90 0 1 14 -14" fill="#fdae61" stroke="#fdae61" stroke-width="0"/>
	<path d="M 441 237.0 v 11 a 14 14 90 0 1 -14 14 H 359 a 14 14 90 0 1 -14 -14 V 237.0 H 96" fill="#fee08b" stroke="#fee08b" stroke-width="0"/>
	<rect x="345" y="212" width="96" height="50" fill="none" rx="14" stroke="#f46d43" stroke-width="2"/>
	<line x1="345" y1="237" x2="441" y2="237" stroke="#f46d43" stroke-width="1"/>
	<text x="352" y="229.7" fill="#000000" font-family="Verdana" font-size="12">BELONGS TO</text>
</g>

<!-- Entity CUSTOMER -->
<g id="entity-CUSTOMER">
	<g id="frame-CUSTOMER">
		<rect x="14" y="9" width="80" height="25" fill="#abdda4" stroke="#abdda4" stroke-width="0"/>
		<rect x="14" y="34.0" width="80" height="77" fill="#e6f598" stroke="#e6f598" stroke-width="0"/>
		<rect x="14" y="9" width="80" height="102" fill="none" stroke="#66c2a5" stroke-width="2"/>
		<line x1="14" y1="34" x2="94" y2="34" stroke="#66c2a5" stroke-width="1"/>
	</g>
	<text x="19" y="26.7" fill="#000000" font-family="Verdana" font-size="12">CUSTOMER</text>
	<text x="19" y="51.7" fill="#000000" font-family="Verdana" font-size="12">name</text>
	<text x="19" y="68.8" fill="#000000" font-family="Verdana" font-size="12">email</text>
	<text x="19" y="85.8" fill="#000000" font-family="Verdana" font-size="12">password</text>
	<text x="19" y="102.8" fill="#000000" font-family="Verdana" font-size="12">address</text>
</g>

<!-- Entity CATEGORY -->
<g id="entity-CATEGORY">
	<g id="frame-CATEGORY">
		<rect x="473" y="212" width="78" height="25" fill="#abdda4" stroke="#abdda4" stroke-width="0"/>
		<rect x="473" y="237.0" width="78" height="25" fill="#e6f598" stroke="#e6f598" stroke-width="0"/>
		<rect x="473" y="212" width="78" height="50" fill="none" stroke="#66c2a5" stroke-width="2"/>
		<line x1="473" y1="237" x2="551" y2="237" stroke="#66c2a5" stroke-width="1"/>
	</g>
	<text x="478" y="229.7" fill="#000000" font-family="Verdana" font-size="12">CATEGORY</text>
	<text x="478" y="254.8" fill="#000000" font-family="Verdana" font-size="12">name</text>
</g>

<!-- Entity PRODUCT -->
<g id="entity-PRODUCT">
	<g id="frame-PRODUCT">
		<rect x="235" y="186" width="78" height="25" fill="#abdda4" stroke="#abdda4" stroke-width="0"/>
		<rect x="235" y="211.0" width="78" height="77" fill="#e6f598" stroke="#e6f598" stroke-width="0"/>
		<rect x="235" y="186" width="78" height="102" fill="none" stroke="#66c2a5" stroke-width="2"/>
		<line x1="235" y1="211" x2="313" y2="211" stroke="#66c2a5" stroke-width="1"/>
	</g>
	<text x="244" y="203.7" fill="#000000" font-family="Verdana" font-size="12">PRODUCT</text>
	<text x="240" y="228.7" fill="#000000" font-family="Verdana" font-size="12">name</text>
	<text x="240" y="245.8" fill="#000000" font-family="Verdana" font-size="12">description</text>
	<text x="240" y="262.8" fill="#000000" font-family="Verdana" font-size="12">price</text>
	<text x="240" y="279.8" fill="#000000" font-family="Verdana" font-size="12">stock</text>
</g>

<!-- Entity OFFER -->
<g id="entity-OFFER">
	<g id="frame-OFFER">
		<rect x="9" y="169" width="90" height="25" fill="#abdda4" stroke="#abdda4" stroke-width="0"/>
		<rect x="9" y="194.0" width="90" height="111" fill="#e6f598" stroke="#e6f598" stroke-width="0"/>
		<rect x="9" y="169" width="90" height="136" fill="none" stroke="#66c2a5" stroke-width="2"/>
		<line x1="9" y1="194" x2="99" y2="194" stroke="#66c2a5" stroke-width="1"/>
	</g>
	<text x="34" y="186.7" fill="#000000" font-family="Verdana" font-size="12">OFFER</text>
	<text x="14" y="211.7" fill="#000000" font-family="Verdana" font-size="12">name</text>
	<text x="14" y="228.7" fill="#000000" font-family="Verdana" font-size="12">type</text>
	<text x="14" y="245.8" fill="#000000" font-family="Verdana" font-size="12">value</text>
	<text x="14" y="262.8" fill="#000000" font-family="Verdana" font-size="12">description</text>
	<text x="14" y="279.8" fill="#000000" font-family="Verdana" font-size="12">validFrom</text>
	<text x="14" y="296.8" fill="#000000" font-family="Verdana" font-size="12">validThrough</text>
</g>

<!-- Entity EMPLOYEE -->
<g id="entity-EMPLOYEE">
	<g id="frame-EMPLOYEE">
		<rect x="474" y="9" width="76" height="25" fill="#abdda4" stroke="#abdda4" stroke-width="0"/>
		<rect x="474" y="34.0" width="76" height="77" fill="#e6f598" stroke="#e6f598" stroke-width="0"/>
		<rect x="474" y="9" width="76" height="102" fill="none" stroke="#66c2a5" stroke-width="2"/>
		<line x1="474" y1="34" x2="550" y2="34" stroke="#66c2a5" stroke-width="1"/>
	</g>
	<text x="479" y="26.7" fill="#000000" font-family="Verdana" font-size="12">EMPLOYEE</text>
	<text x="479" y="51.7" fill="#000000" font-family="Verdana" font-size="12">name</text>
	<text x="479" y="68.8" fill="#000000" font-family="Verdana" font-size="12">email</text>
	<text x="479" y="85.8" fill="#000000" font-family="Verdana" font-size="12">role</text>
	<text x="479" y="102.8" fill="#000000" font-family="Verdana" font-size="12">password</text>
</g>

<!-- Entity ORDER -->
<g id="entity-ORDER">
	<g id="frame-ORDER">
		<rect x="228" y="35" width="92" height="25" fill="#abdda4" stroke="#abdda4" stroke-width="0"/>
		<rect x="228" y="60.0" width="92" height="25" fill="#e6f598" stroke="#e6f598" stroke-width="0"/>
		<rect x="228" y="35" width="92" height="50" fill="none" stroke="#66c2a5" stroke-width="2"/>
		<line x1="228" y1="60" x2="320" y2="60" stroke="#66c2a5" stroke-width="1"/>
	</g>
	<text x="252" y="52.7" fill="#000000" font-family="Verdana" font-size="12">ORDER</text>
	<text x="233" y="77.8" fill="#000000" font-family="Verdana" font-size="12">orderNumber</text>
</g>
</svg>